<svg width="54" height="54" viewBox="0 0 54 54" fill="none" xmlns="http://www.w3.org/2000/svg">
<path fill-rule="evenodd" clip-rule="evenodd" d="M27 0C41.9115 0 54 12.0885 54 27C54 31.6616 52.817 36.0544 50.7349 39.8846L52.7115 50.5163C52.7672 50.8168 52.7489 51.1262 52.6582 51.418C52.5676 51.7098 52.4073 51.9752 52.1913 52.1913C51.9752 52.4073 51.7099 52.5676 51.4181 52.6582C51.1263 52.7488 50.8168 52.7671 50.5164 52.7115L39.8847 50.7323C35.9311 52.8831 31.5007 54.0066 27 54C12.0885 54 -1.19209e-07 41.9115 -1.19209e-07 27C-1.19209e-07 12.0885 12.0885 0 27 0ZM14.4419 23.8605C15.2745 23.8605 16.0731 24.1912 16.6618 24.78C17.2506 25.3688 17.5814 26.1673 17.5814 27C17.5814 27.8326 17.2506 28.6312 16.6618 29.22C16.0731 29.8087 15.2745 30.1395 14.4419 30.1395C13.6092 30.1395 12.8106 29.8087 12.2219 29.22C11.6331 28.6312 11.3023 27.8326 11.3023 27C11.3023 26.1673 11.6331 25.3688 12.2219 24.78C12.8106 24.1912 13.6092 23.8605 14.4419 23.8605ZM30.1395 27C30.1395 26.1673 29.8088 25.3688 29.22 24.78C28.6312 24.1912 27.8327 23.8605 27 23.8605C26.1673 23.8605 25.3688 24.1912 24.78 24.78C24.1912 25.3688 23.8605 26.1673 23.8605 27C23.8605 27.8326 24.1912 28.6312 24.78 29.22C25.3688 29.8087 26.1673 30.1395 27 30.1395C27.8327 30.1395 28.6312 29.8087 29.22 29.22C29.8088 28.6312 30.1395 27.8326 30.1395 27ZM39.5581 23.8605C40.3908 23.8605 41.1893 24.1912 41.7781 24.78C42.3669 25.3688 42.6977 26.1673 42.6977 27C42.6977 27.8326 42.3669 28.6312 41.7781 29.22C41.1893 29.8087 40.3908 30.1395 39.5581 30.1395C38.7255 30.1395 37.9269 29.8087 37.3382 29.22C36.7494 28.6312 36.4186 27.8326 36.4186 27C36.4186 26.1673 36.7494 25.3688 37.3382 24.78C37.9269 24.1912 38.7255 23.8605 39.5581 23.8605Z" fill="#3DDC63"/>
</svg>
