<svg width="66" height="65" viewBox="0 0 66 65" fill="none" xmlns="http://www.w3.org/2000/svg">
<path d="M18.8571 19.2593C21.3578 19.2593 23.756 18.2447 25.5242 16.4388C27.2924 14.6329 28.2857 12.1836 28.2857 9.62963C28.2857 7.07569 27.2924 4.62636 25.5242 2.82045C23.756 1.01455 21.3578 0 18.8571 0C16.3565 0 13.9583 1.01455 12.1901 2.82045C10.4219 4.62636 9.42857 7.07569 9.42857 9.62963C9.42857 12.1836 10.4219 14.6329 12.1901 16.4388C13.9583 18.2447 16.3565 19.2593 18.8571 19.2593ZM0 30.0926C0 28.4964 0.620853 26.9655 1.72598 25.8369C2.8311 24.7082 4.32997 24.0741 5.89286 24.0741H20.9196C20.3337 25.6087 20.0339 27.2417 20.0357 28.8889C20.0357 33.3667 22.2114 37.3269 25.5444 39.7222H20.0357C18.312 39.722 16.6212 40.2044 15.1471 41.1169C13.6731 42.0295 12.4721 43.3373 11.6749 44.8981C7.15864 43.7113 4.26879 41.4026 2.48443 38.7833C-2.80993e-07 35.1361 0 31.3589 0 30.6944V30.0926ZM54.3251 44.8981C58.8414 43.7113 61.7312 41.4026 63.5156 38.7833C66 35.1361 66 31.3565 66 30.6944V30.0926C66 28.4964 65.3791 26.9655 64.274 25.8369C63.1689 24.7082 61.67 24.0741 60.1071 24.0741H45.0804C45.6508 25.5667 45.9643 27.1893 45.9643 28.8889C45.9643 33.3667 43.7886 37.3269 40.4556 39.7222H45.9643C47.688 39.722 49.3788 40.2044 50.8529 41.1169C52.3269 42.0295 53.5279 43.3373 54.3251 44.8981ZM56.5714 9.62963C56.5714 12.1836 55.5781 14.6329 53.8099 16.4388C52.0417 18.2447 49.6435 19.2593 47.1429 19.2593C44.6422 19.2593 42.2441 18.2447 40.4759 16.4388C38.7077 14.6329 37.7143 12.1836 37.7143 9.62963C37.7143 7.07569 38.7077 4.62636 40.4759 2.82045C42.2441 1.01455 44.6422 0 47.1429 0C49.6435 0 52.0417 1.01455 53.8099 2.82045C55.5781 4.62636 56.5714 7.07569 56.5714 9.62963ZM14.1429 49.3519C14.1429 47.7556 14.7637 46.2248 15.8688 45.0961C16.974 43.9674 18.4728 43.3333 20.0357 43.3333H45.9643C46.7381 43.3333 47.5044 43.489 48.2194 43.7915C48.9343 44.0939 49.584 44.5372 50.1312 45.0961C50.6784 45.655 51.1124 46.3185 51.4086 47.0487C51.7047 47.7789 51.8571 48.5615 51.8571 49.3519V49.9537C51.8571 50.6157 51.8571 54.3954 49.3727 58.0426C46.7799 61.8487 41.8534 65 33 65C24.1489 65 19.2201 61.8487 16.6273 58.0426C14.1429 54.3954 14.1429 50.6182 14.1429 49.9537V49.3519ZM33 38.5185C35.5006 38.5185 37.8988 37.504 39.667 35.6981C41.4352 33.8922 42.4286 31.4428 42.4286 28.8889C42.4286 26.335 41.4352 23.8856 39.667 22.0797C37.8988 20.2738 35.5006 19.2593 33 19.2593C30.4994 19.2593 28.1012 20.2738 26.333 22.0797C24.5648 23.8856 23.5714 26.335 23.5714 28.8889C23.5714 31.4428 24.5648 33.8922 26.333 35.6981C28.1012 37.504 30.4994 38.5185 33 38.5185Z" fill="#3DDC63"/>
</svg>
