<svg width="37" height="37" viewBox="0 0 37 37" fill="none" xmlns="http://www.w3.org/2000/svg">
<path d="M30.0738 22.3389C31.0817 20.4455 31.6073 18.3327 31.6039 16.1877C31.6039 8.95031 25.737 3.0835 18.4997 3.0835C11.2623 3.0835 5.39553 8.95031 5.39553 16.1877C5.39022 19.2789 6.48294 22.2716 8.47886 24.6321L8.49428 24.6514C8.49967 24.656 8.5043 24.6622 8.50815 24.6668H8.47886L16.255 32.9225C16.5433 33.2284 16.8911 33.4723 17.277 33.6389C17.663 33.8055 18.0789 33.8915 18.4993 33.8915C18.9197 33.8915 19.3356 33.8055 19.7216 33.6389C20.1075 33.4723 20.4553 33.2284 20.7436 32.9225L28.5205 24.6668H28.4912L28.5036 24.6522L28.5051 24.6506C28.5606 24.5843 28.6161 24.5181 28.6708 24.4502C29.2055 23.7931 29.6753 23.0865 30.0738 22.3389ZM18.5035 21.1973C17.2769 21.1973 16.1005 20.71 15.2332 19.8427C14.3658 18.9753 13.8785 17.7989 13.8785 16.5723C13.8785 15.3457 14.3658 14.1693 15.2332 13.3019C16.1005 12.4346 17.2769 11.9473 18.5035 11.9473C19.7302 11.9473 20.9066 12.4346 21.7739 13.3019C22.6413 14.1693 23.1285 15.3457 23.1285 16.5723C23.1285 17.7989 22.6413 18.9753 21.7739 19.8427C20.9066 20.71 19.7302 21.1973 18.5035 21.1973Z" fill="#A8A8A8"/>
</svg>
