<svg width="54" height="55" viewBox="0 0 54 55" fill="none" xmlns="http://www.w3.org/2000/svg">
<path d="M4.43556 54.6915C4.43556 54.6915 0 54.6915 0 50.1571C0 45.6226 4.43556 32.0192 26.6134 32.0192C48.7912 32.0192 53.2268 45.6226 53.2268 50.1571C53.2268 54.6915 48.7912 54.6915 48.7912 54.6915H4.43556ZM26.6134 27.4847C30.1425 27.4847 33.5271 26.0515 36.0226 23.5003C38.5181 20.9492 39.9201 17.4891 39.9201 13.8813C39.9201 10.2734 38.5181 6.81332 36.0226 4.26218C33.5271 1.71105 30.1425 0.277832 26.6134 0.277832C23.0842 0.277832 19.6996 1.71105 17.2041 4.26218C14.7086 6.81332 13.3067 10.2734 13.3067 13.8813C13.3067 17.4891 14.7086 20.9492 17.2041 23.5003C19.6996 26.0515 23.0842 27.4847 26.6134 27.4847Z" fill="#3DDC63"/>
</svg>
