<svg width="46" height="46" viewBox="0 0 46 46" fill="none" xmlns="http://www.w3.org/2000/svg">
<path d="M33.7303 29.6657H31.5988L30.8433 28.9377C32.5295 26.9799 33.7619 24.6739 34.4522 22.1845C35.1425 19.6952 35.2738 17.0841 34.8366 14.5382C33.5684 7.04183 27.3088 1.05553 19.7541 0.138709C17.0981 -0.197102 14.4005 0.0787692 11.8676 0.945212C9.33467 1.81165 7.03367 3.24571 5.14064 5.13763C3.24761 7.02955 1.81272 9.3292 0.945767 11.8606C0.0788155 14.392 -0.197218 17.0881 0.13879 19.7425C1.05615 27.2928 7.04597 33.5488 14.5467 34.8161C17.0942 35.2531 19.7067 35.1219 22.1975 34.432C24.6883 33.7421 26.9957 32.5105 28.9547 30.8253L29.6832 31.5803V33.7105L41.1501 45.1708C42.2564 46.2764 44.0641 46.2764 45.1703 45.1708C46.2766 44.0652 46.2766 42.2586 45.1703 41.153L33.7303 29.6657ZM17.5416 29.6657C10.8233 29.6657 5.40012 24.2457 5.40012 17.5313C5.40012 10.817 10.8233 5.39695 17.5416 5.39695C24.2599 5.39695 29.6832 10.817 29.6832 17.5313C29.6832 24.2457 24.2599 29.6657 17.5416 29.6657Z" fill="#3BD15F"/>
</svg>
