<svg width="30" height="30" viewBox="0 0 30 30" fill="none" xmlns="http://www.w3.org/2000/svg">
<path d="M21.998 19.3472H20.6079L20.1152 18.8724C21.2149 17.5956 22.0186 16.0916 22.4688 14.4682C22.919 12.8447 23.0046 11.1418 22.7195 9.48143C21.8925 4.5925 17.8101 0.688389 12.8831 0.0904622C11.1509 -0.128545 9.3916 0.0513712 7.73972 0.616443C6.08783 1.18151 4.58718 2.11676 3.35259 3.35063C2.11801 4.58449 1.18221 6.08426 0.616804 7.73518C0.0514014 9.3861 -0.12862 11.1444 0.0905153 12.8755C0.688793 17.7997 4.5952 21.8796 9.487 22.7062C11.1484 22.9912 12.8522 22.9056 14.4767 22.4557C16.1011 22.0057 17.6059 21.2025 18.8835 20.1034L19.3586 20.5958V21.9851L26.837 29.4592C27.5585 30.1803 28.7375 30.1803 29.4589 29.4592C30.1804 28.7382 30.1804 27.5599 29.4589 26.8389L21.998 19.3472ZM11.4402 19.3472C7.05869 19.3472 3.52181 15.8124 3.52181 11.4335C3.52181 7.05455 7.05869 3.51975 11.4402 3.51975C15.8217 3.51975 19.3586 7.05455 19.3586 11.4335C19.3586 15.8124 15.8217 19.3472 11.4402 19.3472Z" fill="#A8A8A8"/>
</svg>
