<svg width="30" height="30" viewBox="0 0 30 30" fill="none" xmlns="http://www.w3.org/2000/svg">
<g clip-path="url(#clip0_1459_300)">
<path d="M29.9081 1.41984C29.8589 1.52687 29.7912 1.62437 29.7081 1.70784L10.8001 20.6118L16.1401 29.5138C16.2347 29.6722 16.3712 29.8012 16.5346 29.8868C16.698 29.9724 16.8819 30.0111 17.0659 29.9986C17.2499 29.9862 17.4269 29.9232 17.5773 29.8164C17.7277 29.7097 17.8456 29.5634 17.9181 29.3938L29.9081 1.41984ZM9.38809 19.1998L0.486095 13.8558C0.327776 13.7612 0.198702 13.6247 0.113143 13.4613C0.0275842 13.2979 -0.0111255 13.1141 0.0012936 12.9301C0.0137127 12.7461 0.0767768 12.5691 0.183513 12.4187C0.29025 12.2683 0.4365 12.1503 0.606095 12.0778L28.5861 0.0898438C28.4775 0.13922 28.3786 0.207632 28.2941 0.291844L9.38809 19.1998Z" fill="#3DDC63"/>
</g>
<defs>
<clipPath id="clip0_1459_300">
<rect width="30" height="30" fill="white"/>
</clipPath>
</defs>
</svg>
