<svg width="69" height="69" viewBox="0 0 69 69" fill="none" xmlns="http://www.w3.org/2000/svg">
<circle cx="34.5" cy="34.5" r="34.5" fill="#D9D9D9"/>
<path d="M20.0045 51.3908C20.0045 51.3908 17 51.3908 17 48.4416C17 45.4923 20.0045 36.6446 35.027 36.6446C50.0495 36.6446 53.0541 45.4923 53.0541 48.4416C53.0541 51.3908 50.0495 51.3908 50.0495 51.3908H20.0045ZM35.027 33.6954C37.4176 33.6954 39.7102 32.7632 41.4005 31.104C43.0909 29.4447 44.0405 27.1943 44.0405 24.8477C44.0405 22.5011 43.0909 20.2507 41.4005 18.5914C39.7102 16.9322 37.4176 16 35.027 16C32.6365 16 30.3439 16.9322 28.6535 18.5914C26.9631 20.2507 26.0135 22.5011 26.0135 24.8477C26.0135 27.1943 26.9631 29.4447 28.6535 31.104C30.3439 32.7632 32.6365 33.6954 35.027 33.6954Z" fill="white"/>
</svg>
